<svg xmlns="http://www.w3.org/2000/svg" viewBox="0 0 34.47 34.47">
    <defs>
        <style>
            .accgr1{fill:#81898c;}
            .accgr2{fill:#eee;}
        </style>
    </defs>
    <g id="Ebene_2" data-name="Ebene 2">
        <g id="Ebene_1-2" data-name="Ebene 1">
            <path class="accgr1" d="M32.73,13.66a1.73,1.73,0,0,1-1.64-1.14,13.27,13.27,0,0,0-.72-1.74,1.73,1.73,0,0,1,.35-2h0a1.75,1.75,0,0,0,0-2.47L28.13,3.75a1.75,1.75,0,0,0-2.47,0h0a1.71,1.71,0,0,1-2,.34A15.69,15.69,0,0,0,22,3.38a1.71,1.71,0,0,1-1.14-1.63h0A1.74,1.74,0,0,0,19.07,0H15.41a1.75,1.75,0,0,0-1.75,1.75h0a1.72,1.72,0,0,1-1.14,1.63,13.27,13.27,0,0,0-1.74.72,1.71,1.71,0,0,1-2-.35h0a1.75,1.75,0,0,0-2.47,0L3.75,6.34a1.75,1.75,0,0,0,0,2.47h0a1.71,1.71,0,0,1,.34,2,15.69,15.69,0,0,0-.72,1.75,1.71,1.71,0,0,1-1.63,1.14h0A1.75,1.75,0,0,0,0,15.41v3.66a1.74,1.74,0,0,0,1.75,1.74A1.71,1.71,0,0,1,3.38,22,14,14,0,0,0,4.1,23.7a1.7,1.7,0,0,1-.35,2h0a1.75,1.75,0,0,0,0,2.47l2.59,2.59a1.75,1.75,0,0,0,2.47,0h0a1.71,1.71,0,0,1,2-.35,14,14,0,0,0,1.75.72,1.72,1.72,0,0,1,1.14,1.63h0a1.74,1.74,0,0,0,1.75,1.74h3.66a1.74,1.74,0,0,0,1.74-1.74A1.73,1.73,0,0,1,22,31.09a14,14,0,0,0,1.75-.72,1.71,1.71,0,0,1,2,.35h0a1.75,1.75,0,0,0,2.47,0l2.59-2.59a1.75,1.75,0,0,0,0-2.47h0a1.71,1.71,0,0,1-.35-2A14,14,0,0,0,31.09,22a1.72,1.72,0,0,1,1.63-1.14h0a1.74,1.74,0,0,0,1.74-1.74V15.41A1.74,1.74,0,0,0,32.73,13.66ZM17.24,26.89a9.66,9.66,0,1,1,9.65-9.65A9.65,9.65,0,0,1,17.24,26.89Z"/>
            <circle class="accgr2" cx="17.24" cy="12.8" r="3.66"/>
            <path class="accgr2" d="M23.21,19a6.18,6.18,0,0,1-6,6.37,6.18,6.18,0,0,1-6-6.37c0-3.51,2.67-2.89,6-2.89S23.21,15.46,23.21,19Z"/>
        </g>
    </g>
</svg>