<svg xmlns="http://www.w3.org/2000/svg" viewBox="0 0 42.98 29">
    <defs>
        <style>
            .cldI-1{fill:#fff;}.cldI-2{fill:#51859e;}
        </style>
    </defs>
    <g>
    <g>
        <path class="cldI-1" d="M0,19A10,10,0,0,1,7.2,9.37,10,10,0,0,1,19.45,3.58a10,10,0,0,1,17.68,6.3A10,10,0,0,1,33.38,29H9.6A10,10,0,0,1,0,19Z"/>
        <path class="cldI-2" d="M21.49,23A6.5,6.5,0,1,1,28,16.5,6.51,6.51,0,0,1,21.49,23Zm0-12A5.5,5.5,0,1,0,27,16.5,5.51,5.51,0,0,0,21.49,11Z"/>
        <rect class="cldI-1" x="25.49" y="15.5" width="4" height="2"/>
    </g>
    </g>
</svg>