<svg xmlns="http://www.w3.org/2000/svg" viewBox="0 0 52 52"><defs><style>.a{}</style></defs><path class="a" d="M611,290v52h17V290Zm14,47.5a.5.5,0,0,1-.5.5h-10a.5.5,0,0,1-.5-.5v-2a.5.5,0,0,1,.5-.5h10a.5.5,0,0,1,.5.5Zm0-4a.5.5,0,0,1-.5.5h-10a.5.5,0,0,1-.5-.5v-2a.5.5,0,0,1,.5-.5h10a.5.5,0,0,1,.5.5Zm0-31a.5.5,0,0,1-.5.5h-10a.5.5,0,0,1-.5-.5v-2a.5.5,0,0,1,.5-.5h10a.5.5,0,0,1,.5.5Z" transform="translate(-611 -290)"/><path class="a" d="M646,290v52h17V290Zm14,47.5a.5.5,0,0,1-.5.5h-10a.5.5,0,0,1-.5-.5v-2a.5.5,0,0,1,.5-.5h10a.5.5,0,0,1,.5.5Zm0-4a.5.5,0,0,1-.5.5h-10a.5.5,0,0,1-.5-.5v-2a.5.5,0,0,1,.5-.5h10a.5.5,0,0,1,.5.5Zm0-31a.5.5,0,0,1-.5.5h-10a.5.5,0,0,1-.5-.5v-2a.5.5,0,0,1,.5-.5h10a.5.5,0,0,1,.5.5Z" transform="translate(-611 -290)"/><path class="a" d="M629.5,303v39h15V303Zm11.91,34.5a.47.47,0,0,1-.44.5H633a.47.47,0,0,1-.44-.5v-2a.47.47,0,0,1,.44-.5H641a.47.47,0,0,1,.44.5Zm0-28a.47.47,0,0,1-.44.5H633a.47.47,0,0,1-.44-.5v-2a.47.47,0,0,1,.44-.5H641a.47.47,0,0,1,.44.5Z" transform="translate(-611 -290)"/></svg>