<svg xmlns="http://www.w3.org/2000/svg" viewBox="0 0 42 42">
    <defs>
        <style>#cls-1{fill:#e6e6e6;}#cls-2{fill:#fff;}#cls-3{fill:#afafaf;}
        </style>
    </defs>
    <g><g>
        <circle id="cls-1" cx="21" cy="21" r="21"/>
        <path id="cls-2" d="M33.81,13.07V29.45H8.19V13.07H33.81m.95-1.5H7.24a.55.55,0,0,0-.55.55V30.39a.55.55,0,0,0,.55.56H34.76a.55.55,0,0,0,.55-.56V12.12a.55.55,0,0,0-.55-.55Z"/>
        <rect id="cls-2" x="9.06" y="13.82" width="12.25" height="5.38" rx="0.5"/>
        <rect id="cls-2" x="9.06" y="20.07" width="5.63" height="8.72" rx="0.5"/>
        <rect id="cls-2" x="22.31" y="13.82" width="7.88" height="5.38" rx="0.5"/>
        <rect id="cls-2" x="15.69" y="20.17" width="5.63" height="5.38" rx="0.5"/>
        <path id="cls-3" d="M32.13,20.82a.23.23,0,0,1,0,.33L17.16,35a.77.77,0,0,1-1.06-.14h0A.78.78,0,0,1,16,33.79l13.83-15a.24.24,0,0,1,.34,0Z"/>
        <path id="cls-3" d="M30.51,18.18c.1-.4.95-1,.95-1,.74-.74,2.11.45,3.2-.93a1.34,1.34,0,0,1,.23.68,4,4,0,0,1-1.22,3s-.69.68-.85.55"/>
    </g></g>
</svg>