<svg xmlns="http://www.w3.org/2000/svg" viewBox="0 0 47 37.28">
    <defs>
        <style>
            .accg1{fill:#eee;}
            .accg2{fill:#81898c;}
        </style>
    </defs>
    <g id="Ebene_2">
        <g id="Ebene_1-2">
            <circle class="accg1" cx="15.4" cy="15.4" r="9.24"/>
            <path class="accg1" d="M3.85,13.55h-2a1.85,1.85,0,1,0,0,3.69h2A11.42,11.42,0,0,1,3.85,13.55Z"/>
            <path class="accg1" d="M29,13.55H27a11.71,11.71,0,0,1,0,3.69h2a1.85,1.85,0,0,0,0-3.69Z"/>
            <path class="accg1" d="M4.47,19.57l-1.73,1a1.85,1.85,0,1,0,1.85,3.2l1.73-1A11.66,11.66,0,0,1,4.47,19.57Z"/>
            <path class="accg1" d="M28.73,7.7A1.84,1.84,0,0,0,26.21,7L24.47,8a11.55,11.55,0,0,1,1.85,3.2l1.73-1A1.84,1.84,0,0,0,28.73,7.7Z"/>
            <path class="accg1" d="M21.25,5.26a13.72,13.72,0,0,1,1.52,1.06l1-1.73a1.85,1.85,0,1,0-3.2-1.85l-1,1.74A12.72,12.72,0,0,1,21.25,5.26Z"/>
            <path class="accg1" d="M9.55,25.53A11.11,11.11,0,0,1,8,24.47L7,26.21a1.85,1.85,0,1,0,3.2,1.84l1-1.73A11.14,11.14,0,0,1,9.55,25.53Z"/>
            <path class="accg1" d="M8,6.32a11.81,11.81,0,0,1,3.2-1.85l-1-1.73A1.85,1.85,0,1,0,7,4.59Z"/>
            <path class="accg1" d="M22.77,24.47a11.41,11.41,0,0,1-3.2,1.85l1,1.73a1.85,1.85,0,0,0,3.2-1.84Z"/>
            <path class="accg1" d="M5.26,9.55A11.17,11.17,0,0,1,6.33,8L4.59,7a1.85,1.85,0,1,0-1.85,3.2l1.74,1A12.15,12.15,0,0,1,5.26,9.55Z"/>
            <path class="accg1" d="M28.05,20.57l-1.73-1a11.62,11.62,0,0,1-.79,1.68,12.49,12.49,0,0,1-1.06,1.52l1.74,1a1.85,1.85,0,1,0,1.84-3.2Z"/>
            <path class="accg1" d="M17.24,3.85v-2a1.85,1.85,0,1,0-3.69,0v2A11.42,11.42,0,0,1,17.24,3.85Z"/>
            <path class="accg1" d="M13.55,26.94v2a1.85,1.85,0,0,0,3.69,0V27A11.71,11.71,0,0,1,13.55,26.94Z"/>
            <rect class="accg2" y="29.17" width="47" height="4.86" rx="1.5"/>
            <rect class="accg1" x="34.03" y="25.93" width="3.24" height="11.34" rx="1"/>
        </g>
    </g>
</svg>