<svg xmlns="http://www.w3.org/2000/svg" viewBox="0 0 42 42">
    <defs>
        <style>#cls-1{fill:#e6e6e6;}#cls-3{fill:#afafaf;}#cls-2{fill:#fff;}</style>
    </defs>
    <g><g>
        <circle id="cls-1" cx="21" cy="21" r="21"/>
        <path id="cls-3" d="M30.12,23.08c.48,0,.88-.9.88-2v-.16c0-1.1-.4-2-.88-2A1.28,1.28,0,0,1,29,18.14c-.14-.44-.4-1.78-.06-2.12s0-1.26-.79-2l-.1-.1c-.78-.78-1.7-1.14-2-.79a1.28,1.28,0,0,1-1.36.25c-.4-.2-1.54-1-1.54-1.46s-.9-.88-2-.88h-.16c-1.1,0-2,.4-2,.88A1.28,1.28,0,0,1,18.14,13c-.44.14-1.78.4-2.12.06s-1.26,0-2,.79l-.1.1c-.78.78-1.14,1.7-.79,2a1.28,1.28,0,0,1,.25,1.36c-.2.4-1,1.54-1.46,1.54s-.88.9-.88,2v.16c0,1.1.4,2,.88,2a1.28,1.28,0,0,1,1.15.78c.14.44.4,1.78.06,2.12s0,1.26.79,2l.1.1c.78.78,1.7,1.14,2,.79a1.28,1.28,0,0,1,1.36-.25c.4.2,1.54,1,1.54,1.46s.9.88,2,.88h.16c1.1,0,2-.4,2-.88A1.28,1.28,0,0,1,23.86,29c.44-.14,1.78-.4,2.12-.06s1.26,0,2-.79l.1-.1c.78-.78,1.14-1.7.79-2a1.28,1.28,0,0,1-.25-1.36C28.86,24.22,29.63,23.08,30.12,23.08ZM21,25.72A4.72,4.72,0,1,1,25.72,21,4.72,4.72,0,0,1,21,25.72Z"/>
        <path id="cls-2" d="M34.68,24.11c.72,0,1.32-.9,1.32-2V19.89c0-1.1-.6-2-1.32-2A1.91,1.91,0,0,1,33,16.7c-.22-.65-.6-2.65-.09-3.17s.3-1.57-.48-2.35L30.82,9.61c-.78-.78-1.84-1-2.35-.48a1.9,1.9,0,0,1-2,.38c-.6-.3-2.32-1.46-2.32-2.19S23.21,6,22.11,6H19.89c-1.1,0-2,.6-2,1.32A1.91,1.91,0,0,1,16.7,9c-.65.22-2.65.6-3.17.09s-1.57-.3-2.35.48L9.61,11.18c-.78.78-1,1.84-.48,2.35a1.9,1.9,0,0,1,.38,2c-.3.6-1.46,2.32-2.19,2.32s-1.32.9-1.32,2v2.22c0,1.1.6,2,1.32,2A1.91,1.91,0,0,1,9,25.3c.22.65.6,2.65.09,3.17s-.3,1.57.48,2.35l1.57,1.57c.78.78,1.84,1,2.35.48a1.9,1.9,0,0,1,2-.38c.6.3,2.32,1.46,2.32,2.19s.9,1.32,2,1.32h2.22c1.1,0,2-.6,2-1.32A1.91,1.91,0,0,1,25.3,33c.65-.22,2.65-.6,3.17-.09s1.57.3,2.35-.48l1.57-1.57c.78-.78,1-1.84.48-2.35a1.9,1.9,0,0,1-.38-2C32.79,25.83,34,24.11,34.68,24.11ZM21,28.08A7.08,7.08,0,1,1,28.08,21,7.08,7.08,0,0,1,21,28.08Z"/>
    </g></g>
</svg>