<svg xmlns="http://www.w3.org/2000/svg" viewBox="0 0 248.36 320">
    <defs>
        <style>#a{fill:#e0e0e0;}#b{fill:#eee;}#c{fill:#272727;}</style>
    </defs>
    <path id="a" d="M124.18,14.33h0A81.19,81.19,0,0,0,43,95.52v28.66h9.55a4.77,4.77,0,0,0,4.77-4.78V97.33c0-34.27,25-64.37,59.1-68.23A66.94,66.94,0,0,1,191,95.52v86a66.49,66.49,0,0,1-14.32,41.23v20.62a81,81,0,0,0,28.65-61.85v-86A81.19,81.19,0,0,0,124.18,14.33Z"/>
    <rect id="b" y="119.4" width="248.36" height="200.6" rx="19.01"/>
    <circle id="c" cx="124.18" cy="201.79" r="21.49"/>
    <path id="c" d="M133.58,257.91h-18.8a4.66,4.66,0,0,1-4.9-5l3.87-31.64a4.79,4.79,0,0,1,4.91-4h11a4.78,4.78,0,0,1,4.9,4l3.88,31.64A4.67,4.67,0,0,1,133.58,257.91Z"/>
    <path id="b" d="M120.49.07C68.8,2,28.66,46.14,28.66,97.87v21.4a4.91,4.91,0,0,0,4.91,4.91H43V95.52a81.19,81.19,0,0,1,81.19-81.19h0a81.19,81.19,0,0,1,81.19,81.19v86a81,81,0,0,1-28.65,61.85v17.85a95.5,95.5,0,0,0,43-79.7v-86A95.62,95.62,0,0,0,120.49.07Z"/>
</svg>