<svg xmlns="http://www.w3.org/2000/svg" viewBox="0 0 52 39"><defs><style>.a{}</style></defs><polygon class="a" points="6 27 0 30 0 9 6 12 6 27"/><polygon class="a" points="8 27 46 37.5 46 1.5 8 12 8 27"/><rect class="a" x="48" width="4" height="39" rx="1"/><path class="a" d="M773.5,330.9h0a2.14,2.14,0,0,1-2.45-1.06L769,324c-.28-.8.35-1.62,1.42-1.83h0a2.13,2.13,0,0,1,2.45,1.06l2.09,5.87C775.2,329.86,774.57,330.69,773.5,330.9Z" transform="translate(-755 -295)"/><path class="a" d="M783.15,332.19h0a2.25,2.25,0,0,1-2.57.9L772.74,331c-1-.28-1.57-1.14-1.19-1.92h0a2.23,2.23,0,0,1,2.56-.9l7.84,2.14C783,330.56,783.53,331.42,783.15,332.19Z" transform="translate(-755 -295)"/><path class="a" d="M785.48,326.27h0c1,.42,1.29,1.34.74,2.05l-3,3.86a2.41,2.41,0,0,1-2.73.55h0c-1-.42-1.29-1.34-.74-2.05l3-3.86A2.41,2.41,0,0,1,785.48,326.27Z" transform="translate(-755 -295)"/></svg>