<svg xmlns="http://www.w3.org/2000/svg" viewBox="0 0 31 31"><defs><style>.sttgr1{fill:#81898c;}</style></defs><g id="Ebene_2" data-name="Ebene 2"><g id="Ebene_1-2" data-name="Ebene 1"><path id="Pfad_24" data-name="Pfad 24" class="sttgr1" d="M31,18.72V12.28H28.26A13,13,0,0,0,26.8,8.75l1.94-1.94L24.19,2.26,22.25,4.2a13,13,0,0,0-3.53-1.46V0H12.28V2.74A13,13,0,0,0,8.75,4.2L6.81,2.26,2.26,6.81,4.2,8.75a13,13,0,0,0-1.46,3.53H0v6.44H2.74A13,13,0,0,0,4.2,22.25L2.26,24.19l4.55,4.55L8.75,26.8a13,13,0,0,0,3.53,1.46V31h6.44V28.26a13,13,0,0,0,3.53-1.46l1.94,1.94,4.55-4.55L26.8,22.25a13,13,0,0,0,1.46-3.53ZM15.5,22.81a7.31,7.31,0,1,1,7.31-7.31,7.31,7.31,0,0,1-7.31,7.31Z"/></g></g></svg>