<svg xmlns="http://www.w3.org/2000/svg" viewBox="0 0 31.5 31.5"><defs><style>.a{}.b{}</style></defs><path class="a" d="M24.85,15.7c.63,0,1.15-.9,1.15-2V12.3c0-1.1-.52-2-1.15-2a1.66,1.66,0,0,1-1.49-1c-.19-.57-.52-2.31-.07-2.75s.17-1.45-.6-2.23l-1-1c-.78-.77-1.78-1-2.23-.6A1.61,1.61,0,0,1,17.71,3c-.53-.26-2-1.26-2-1.89S14.8,0,13.7,0H12.3c-1.1,0-2,.52-2,1.15a1.66,1.66,0,0,1-1,1.49c-.57.19-2.31.52-2.75.07s-1.45-.17-2.23.6l-1,1c-.77.78-1,1.78-.6,2.23A1.61,1.61,0,0,1,3,8.29c-.26.53-1.26,2-1.89,2S0,11.2,0,12.3v1.4c0,1.1.52,2,1.15,2a1.66,1.66,0,0,1,1.49,1c.19.57.52,2.31.07,2.75s-.17,1.45.6,2.23l1,1c.78.77,1.78,1,2.23.6A1.61,1.61,0,0,1,8.29,23c.53.26,2,1.26,2,1.89s.9,1.15,2,1.15h1.4c1.1,0,2-.52,2-1.15a1.66,1.66,0,0,1,1-1.49c.57-.19,2.31-.52,2.75-.07s1.45.17,2.23-.6l1-1c.77-.78,1-1.78.6-2.23A1.61,1.61,0,0,1,23,17.71C23.22,17.18,24.22,15.7,24.85,15.7ZM13,19.13A6.13,6.13,0,1,1,19.13,13,6.12,6.12,0,0,1,13,19.13Z"/><path class="b" d="M30.75,24.76c.41,0,.75-.79.75-1.76s-.34-1.76-.75-1.76a1.09,1.09,0,0,1-1-.67c-.13-.37-.35-1.51-.05-1.8s0-1.09-.72-1.78-1.49-1-1.78-.72a1.06,1.06,0,0,1-1.15.22c-.34-.17-1.32-.83-1.32-1.24S24,14.5,23,14.5s-1.76.34-1.76.75a1.09,1.09,0,0,1-.67,1c-.37.13-1.51.35-1.8.05s-1.09,0-1.78.72-1,1.49-.72,1.78a1.06,1.06,0,0,1,.22,1.15c-.17.34-.83,1.32-1.24,1.32S14.5,22,14.5,23s.34,1.76.75,1.76a1.09,1.09,0,0,1,1,.67c.13.37.35,1.51.05,1.8s0,1.09.72,1.78,1.49,1,1.78.72a1.06,1.06,0,0,1,1.15-.22c.34.17,1.32.83,1.32,1.24s.79.75,1.76.75,1.76-.34,1.76-.75a1.09,1.09,0,0,1,.67-1c.37-.13,1.51-.35,1.8-.05s1.09,0,1.78-.72,1-1.49.72-1.78a1.06,1.06,0,0,1-.22-1.15C29.68,25.74,30.34,24.76,30.75,24.76ZM23,27a4,4,0,1,1,4-4A4,4,0,0,1,23,27Z"/></svg>