<svg xmlns="http://www.w3.org/2000/svg" viewBox="0 0 23.39 26.72"><defs><style>.sbmtTsk1{}</style></defs><g id="Ebene_2" data-name="Ebene 2"><g id="Ebene_1-2" data-name="Ebene 1"><rect class="sbmtTsk1" x="9.89" y="21.22" width="9" height="1" rx="0.5"/><rect class="sbmtTsk1" x="9.89" y="18.22" width="9" height="1" rx="0.5"/><rect class="sbmtTsk1" x="9.89" y="15.22" width="5" height="1" rx="0.5"/><path class="sbmtTsk1" d="M23,5.58,20.53,3.16a1.48,1.48,0,0,0-1.06-.44H12.81l-.37,1h7a.51.51,0,0,1,.36.15l2.41,2.41a.49.49,0,0,1,.15.36V25.22a.5.5,0,0,1-.5.5h-15a.5.5,0,0,1-.5-.5V9.43L5.73,8.05l-.34-.16V25.22a1.5,1.5,0,0,0,1.5,1.5h15a1.5,1.5,0,0,0,1.5-1.5V6.64A1.5,1.5,0,0,0,23,5.58Z"/><g id="Send"><path class="sbmtTsk1" d="M12.16,1.62,8.47,11.47,6.63,7.62,6.48,7.3l-.32-.15L2.31,5.31l9.85-3.69M13.66,0H13.6L.13,5.06C0,5.11,0,5.29.06,5.34L5.73,8.05l2.71,5.66a.1.1,0,0,0,.1.07.2.2,0,0,0,.18-.13l5-13.47c0-.1,0-.18-.11-.18Z"/><path class="sbmtTsk1" d="M8.84,4.6a.33.33,0,0,0-.24.1L5.73,7.57a.33.33,0,0,0,0,.48.31.31,0,0,0,.24.1.34.34,0,0,0,.24-.1L9.08,5.18a.34.34,0,0,0,0-.48.33.33,0,0,0-.24-.1Z"/></g></g></g></svg>